<svg xmlns="http://www.w3.org/2000/svg" version="1.1" xmlns:xlink="http://www.w3.org/1999/xlink" xmlns:svgjs="http://svgjs.dev/svgjs" width="1000" height="625" viewBox="0 0 1000 625"><g transform="matrix(1,0,0,1,0,0)"><svg viewBox="0 0 512 320" data-background-color="#ffffff" preserveAspectRatio="xMidYMid meet" height="625" width="1000" xmlns="http://www.w3.org/2000/svg" xmlns:xlink="http://www.w3.org/1999/xlink"><g id="tight-bounds" transform="matrix(1,0,0,1,0,0)"><svg viewBox="0 0 512 320" height="320" width="512"><g><svg></svg></g><g><svg viewBox="0 0 512 320" height="320" width="512"><g><path transform="translate(256,160) scale(160,160)" d="M-1 0c0-0.552 0.448-1 1-1 0.552 0 1 0.448 1 1 0 0.552-0.448 1-1 1-0.552 0-1-0.448-1-1z" fill="#ff851b" fill-rule="nonzero" stroke="none" stroke-width="1" stroke-linecap="butt" stroke-linejoin="miter" stroke-miterlimit="10" stroke-dasharray="" stroke-dashoffset="0" font-family="none" font-weight="none" font-size="none" text-anchor="none" style="mix-blend-mode: normal" data-fill-palette-color="tertiary"></path></g><g transform="matrix(1,0,0,1,116,20)"><svg viewBox="0 0 280 280" height="280" width="280"><g><svg viewBox="0 0 280 280" height="280" width="280"><g><svg viewBox="0 0 280 280" height="280" width="280"><g id="textblocktransform"><svg viewBox="0 0 280 280" height="280" width="280" id="textblock"><g><svg viewBox="0 0 280 280" height="280" width="280"><g transform="matrix(1,0,0,1,101.85508774823795,90.50252531694167)"><svg viewBox="0 0 76.2898245035241 98.99494936611666" height="98.99494936611666" width="76.2898245035241"><g><svg xmlns="http://www.w3.org/2000/svg" xmlns:xlink="http://www.w3.org/1999/xlink" version="1.1" x="0" y="0" viewBox="15.1941176870281 6.289 63.6508823129719 82.59444706666264" enable-background="new 0 0 95 95" xml:space="preserve" height="98.99494936611666" width="76.2898245035241" class="icon-kg-0" data-fill-palette-color="quaternary" id="kg-0"><g fill="#ffffff" data-fill-palette-color="quaternary"><path d="M57.986 40.146c0 0 4.195 1.369 9.17-6.148 4.974-7.519 11.689-21.447 11.689-21.447l-0.441-0.276L65.594 32.12c-0.277 0.446-0.902 0.557-1.396 0.247-0.493-0.307-0.669-0.916-0.39-1.361l11.896-20.418-0.397-0.248L62.188 29.995c-0.275 0.445-0.9 0.556-1.396 0.248-0.492-0.308-0.668-0.919-0.392-1.363L72.298 8.463 71.96 8.252 58.846 27.908c-0.277 0.445-0.904 0.555-1.396 0.248-0.494-0.31-0.671-0.919-0.392-1.363L69.258 6.566l-0.441-0.277c0 0-9.563 12.154-14.131 19.924-4.569 7.771-1.496 10.939-1.496 10.939l0.291 0.181L22.605 83.629l0.005 0.005c-0.73 1.3 0.613 3.541 2.106 4.474 1.495 0.935 4.098 1.154 4.945-0.071l0.006 0.003 0.055-0.088c0.002-0.003 0.003-0.006 0.005-0.008 0.001-0.002 0.002-0.004 0.003-0.006l27.963-47.973L57.986 40.146z" fill="#ffffff" data-fill-palette-color="quaternary"></path><path d="M42.197 51.424l0.215-0.141 0.287 0.455 3.756-5.635-10.558-14.73-0.009 0.006L19.042 6.307C4.65 6.66 35.265 51.313 35.265 51.313L42.197 51.424z" fill="#ffffff" data-fill-palette-color="quaternary"></path><path d="M72.833 82.908L51.305 52.869l-3.798 6.514 17.856 28.393c0 0.002 0.003 0.004 0.004 0.007 0.002 0.002 0.003 0.004 0.005 0.007l0.063 0.093 0.004-0.004c0.951 1.283 3.73 0.953 5.295-0.101 1.565-1.053 2.922-3.498 2.094-4.862L72.833 82.908z" fill="#ffffff" data-fill-palette-color="quaternary"></path></g></svg></g></svg></g><g><path d="M13.997 92.013c0.112 0.045 0.233 0.077 0.364 0.093 0.128 0.023 0.25 0.044 0.366 0.062v0c0.119-0.205 0.265-0.519 0.436-0.941v0c0.76-1.871 1.14-3.958 1.142-6.261v0c0.016-0.645 0.1-1.154 0.251-1.527v0c0.303-0.746 0.898-1.221 1.785-1.426v0c0.469-0.085 0.837-0.073 1.104 0.035v0c0.323 0.131 0.588 0.442 0.795 0.931v0c0.557 1.464 0.655 2.826 0.296 4.086v0c-0.301 1.116-0.724 2.809-1.27 5.078v0l-0.735 2.961c0.758 0.808 1.579 1.391 2.462 1.749v0c1.281 0.52 2.522 0.503 3.725-0.052 1.209-0.552 2.153-1.592 2.831-3.119v0c0.67-1.56 1.382-3.617 2.137-6.171v0l0.205-0.612c0.273-0.671 0.651-1.166 1.135-1.483 0.484-0.318 1.195-0.518 2.134-0.6v0c0.522 0.552 0.789 1.142 0.801 1.77 0.007 0.625-0.11 1.386-0.35 2.28v0c-0.253 0.926-0.608 1.951-1.065 3.076v0c-0.985 2.424-2.259 4.456-3.822 6.095v0c-2.735 2.901-5.938 4.164-9.609 3.789v0c-0.509-0.048-1.025-0.177-1.548-0.39-0.522-0.212-0.836-0.34-0.942-0.382v0c-0.908-0.369-1.755-0.199-2.542 0.51v0c-0.691 0.56-1.301 0.956-1.831 1.19-0.53 0.234-1.189 0.252-1.977 0.055v0l1.557-4.636-5.064-4.436c-0.164-0.132-0.373-0.285-0.627-0.461-0.252-0.182-0.442-0.346-0.572-0.493v0c-0.436-0.46-0.828-0.76-1.176-0.901v0c-0.528-0.215-1.098-0.149-1.709 0.196v0c-0.206 0.133-0.514 0.186-0.923 0.158-0.411-0.022-0.747-0.025-1.007-0.007v0l0.08-1c0.066-0.466 0.096-0.808 0.092-1.027v0c-0.004-0.132-0.012-0.399-0.022-0.802-0.008-0.409-0.094-0.679-0.258-0.81v0c-0.378-0.371-0.588-0.728-0.63-1.071-0.048-0.345 0.009-0.717 0.171-1.115v0c0.109-0.267 0.296-0.658 0.563-1.172v0c0.066-0.162 0.168-0.316 0.307-0.462 0.139-0.146 0.283-0.251 0.432-0.314v0c0.89-0.355 1.596-0.862 2.116-1.519 0.514-0.66 0.979-1.5 1.392-2.52v0l0.697-1.716 1.367-3.366c0.922-2.269 1.634-3.953 2.139-5.051v0c0.271-0.578 0.83-1.224 1.677-1.937v0c0.146-0.129 0.351-0.194 0.612-0.197 0.268 0 0.507 0.043 0.719 0.129v0c0.106 0.043 0.195 0.188 0.269 0.435 0.073 0.247 0.102 0.462 0.086 0.643v0c-0.252 2.012-0.532 3.503-0.838 4.472v0c-0.446 1.492-1.15 3.722-2.11 6.693v0c-0.242 0.684-0.607 1.781-1.098 3.291v0c-0.043 0.106-0.153 0.278-0.33 0.518-0.177 0.24-0.292 0.425-0.344 0.555v0c-0.401 0.988-0.243 1.784 0.475 2.387v0c1.846 1.59 3.692 3.132 5.539 4.629v0z" fill="#ffffff" data-fill-palette-color="quaternary"></path><path d="M49.438 58.582c-0.253 0.132-0.462 0.3-0.625 0.504v0c-0.16 0.199-0.249 0.411-0.268 0.637-0.019 0.226 0 0.513 0.056 0.86v0c0.057 0.485 0.056 0.946-0.001 1.382v0c-0.058 0.393-0.31 1.004-0.755 1.834v0c-0.211 0.347-0.398 0.623-0.562 0.827v0c-0.758 0.94-1.754 1.754-2.988 2.44-1.238 0.691-2.32 1.013-3.246 0.964v0c-0.989-0.056-1.836-0.385-2.539-0.986v0c-1.059-0.888-1.774-2.205-2.143-3.95v0c-0.348-1.685-0.45-3.051-0.304-4.097 0.14-1.051 0.654-2.239 1.542-3.566v0c0.215-0.266 0.482-0.689 0.801-1.267 0.31-0.577 0.387-0.929 0.23-1.056v0c-0.313-0.253-0.71-0.344-1.189-0.273-0.489 0.072-1.076 0.533-1.762 1.385v0c-0.253 0.313-0.608 0.803-1.066 1.468v0c-0.462 0.67-0.793 1.128-0.991 1.373v0c-0.615 0.763-1.182 1.21-1.702 1.343v0c-0.118 0.06-0.367-0.063-0.748-0.371v0c-0.674-0.543-0.908-1.124-0.703-1.742v0c0.414-1.252 1.028-2.403 1.84-3.455v0c1.048-1.301 2.303-2.276 3.766-2.924 1.471-0.65 2.841-0.89 4.109-0.721v0c1.268 0.169 2.718 0.781 4.349 1.837v0c1.825 1.178 4.039 2.815 6.641 4.912v0c0.716 0.577 1.049 1.013 1 1.309v0c-0.033 0.266-0.113 0.477-0.24 0.634v0c-0.164 0.204-0.374 0.341-0.628 0.412-0.26 0.066-0.585 0.111-0.974 0.133v0c-0.406 0.001-0.705 0.052-0.899 0.154zM44.743 63.575c0.537-1.308 0.864-2.746 0.982-4.315v0c0.024-0.351-0.015-0.714-0.117-1.089-0.098-0.381-0.164-0.619-0.199-0.716v0c-0.03-0.102-0.194-0.299-0.493-0.591-0.3-0.302-0.557-0.522-0.772-0.662v0c-0.089-0.029-0.303-0.132-0.642-0.31-0.335-0.184-0.661-0.308-0.978-0.374v0c-0.266-0.033-0.576 0.009-0.931 0.128-0.359 0.124-0.608 0.294-0.747 0.51v0c-0.324 0.445-0.538 1.031-0.641 1.758-0.107 0.732-0.086 1.508 0.064 2.327v0c0.172 0.845 0.427 1.598 0.765 2.258 0.338 0.66 0.732 1.171 1.182 1.534v0c0.64 0.447 1.179 0.606 1.618 0.477v0c0.236-0.068 0.445-0.215 0.626-0.44v0c0.147-0.183 0.242-0.348 0.283-0.495z" fill="#ffffff" data-fill-palette-color="quaternary"></path><path d="M53.306 35.752c-0.298-0.062-0.555-0.175-0.77-0.34-0.212-0.16-0.478-0.409-0.799-0.747v0c-0.153-0.64 0.048-1.167 0.601-1.582v0c0.306-0.162 0.518-0.288 0.636-0.376v0c0.462-0.346 0.647-0.698 0.554-1.057-0.096-0.364-0.283-0.731-0.561-1.101-0.274-0.365-0.489-0.652-0.645-0.862v0l-1.453-2.157c-0.319-0.482-0.716-1.073-1.19-1.774-0.473-0.71-1.024-1.53-1.653-2.458v0c-0.345-0.505-0.491-0.952-0.44-1.343 0.047-0.396 0.267-0.741 0.659-1.034v0c0.279-0.209 0.515-0.353 0.708-0.431v0c1.102-0.499 1.961-0.672 2.577-0.522 0.616 0.151 1.274 0.576 1.974 1.276v0c0.148 0.141 0.375 0.49 0.684 1.047v0l3.414 5.867c0.083 0.156 0.178 0.349 0.284 0.58 0.096 0.23 0.179 0.39 0.247 0.481v0c0.157 0.209 0.377 0.263 0.66 0.16 0.283-0.103 0.726-0.401 1.329-0.895v0c0.885-1.023 1.58-1.774 2.085-2.253v0c0.098-0.115 0.273-0.268 0.525-0.457v0c0.279-0.209 0.491-0.313 0.635-0.312v0c0.128-0.02 0.303 0.058 0.527 0.234 0.22 0.171 0.435 0.395 0.644 0.675v0c0.189 0.252 0.333 0.505 0.43 0.759 0.094 0.248 0.105 0.42 0.034 0.515v0c-0.486 0.649-1.112 1.353-1.877 2.111v0c-0.878 0.943-1.507 1.665-1.886 2.166v0c-0.2 0.259-0.326 0.622-0.379 1.089-0.043 0.468 0.011 0.826 0.163 1.073v0c0.796 1.164 1.624 2.342 2.484 3.534v0c0.65 0.913 1.359 1.786 2.126 2.62v0c0.641 0.71 1.202 1.145 1.682 1.306 0.48 0.16 0.951 0.067 1.413-0.279v0c0.365-0.274 0.8-0.796 1.303-1.568v0c0.25-0.439 0.512-0.761 0.786-0.965v0c0.44-0.33 0.933-0.322 1.477 0.025v0c0.19 0.109 0.346 0.244 0.467 0.404v0c0.225 0.301 0.296 0.625 0.213 0.973-0.074 0.349-0.244 0.732-0.51 1.149v0c-0.504 0.771-1.105 1.435-1.803 1.992v0c-0.967 0.724-2.054 1.17-3.262 1.336-1.208 0.167-2.381 0.011-3.52-0.469-1.134-0.484-2.08-1.305-2.839-2.463v0c-0.308-0.456-0.817-1.157-1.524-2.103v0c-1.122-1.498-2.317-2.976-3.585-4.432v0c-0.126-0.124-0.281-0.163-0.464-0.117-0.184 0.046-0.463 0.154-0.838 0.326v0c-0.6 0.307-1.041 0.44-1.323 0.399z" fill="#ffffff" data-fill-palette-color="quaternary"></path><path d="M100.784 14.937c0.422 0.109 0.749 0.225 0.981 0.348 0.238 0.12 0.412 0.313 0.522 0.58v0c0.11 0.267 0.131 0.584 0.065 0.952v0c-0.395 0.257-0.636 0.385-0.724 0.385v0c-1.268 0.18-2.743 0.616-4.424 1.307v0c-1.278 0.526-2.773 1.249-4.484 2.17v0l-1.542 0.775c-0.536 0.285-1.228 0.726-2.079 1.322v0l-1.175 0.767c-0.352 0.203-0.636 0.349-0.854 0.438v0c-1.303 0.536-2.74 0.597-4.31 0.183v0c-0.687-0.153-1.123-0.456-1.31-0.909v0c-0.207-0.503-0.002-1.098 0.615-1.787v0c0.548-0.573 1.165-1.048 1.852-1.425v0l1.871-0.9c2.724-1.403 5.005-2.482 6.842-3.237v0c1.44-0.592 2.828-0.992 4.164-1.2 1.33-0.206 2.66-0.129 3.99 0.231z" fill="#ffffff" data-fill-palette-color="quaternary"></path><path d="M124.49 5.894c0.019 0.173 0.013 0.4-0.017 0.68-0.025 0.273-0.019 0.451 0.017 0.535v0c1.928-0.64 3.58-1.034 4.954-1.183v0c2.148-0.232 3.88 0.624 5.197 2.567v0c1.076 1.652 1.728 3.539 1.957 5.66v0c0.058 0.54 0.087 1.334 0.085 2.379v0c-0.013 0.696-0.227 1.276-0.642 1.74-0.415 0.47-0.936 0.739-1.563 0.807v0c-0.66 0.071-1.141-0.002-1.441-0.219-0.299-0.211-0.486-0.474-0.561-0.79-0.074-0.309-0.148-0.807-0.222-1.495v0l-0.147-0.895c-0.239-1.715-0.514-3.194-0.823-4.436v0c-0.142-0.504-0.375-0.847-0.699-1.028-0.324-0.188-0.729-0.255-1.216-0.203v0c-0.46 0.05-0.996 0.182-1.607 0.397v0c-0.946 0.365-1.578 0.636-1.897 0.812-0.311 0.182-0.759 0.534-1.343 1.056v0c-0.184 0.168-0.297 0.471-0.338 0.907-0.033 0.442-0.047 0.69-0.041 0.743v0c-0.175 1.875-0.342 4.11-0.501 6.705v0c-0.014 0.116-0.042 0.396-0.081 0.839-0.041 0.436-0.171 0.761-0.391 0.974-0.227 0.213-0.57 0.315-1.03 0.303v0c-1.832-0.032-2.831-0.69-2.997-1.974v0c-0.213-1.657-0.298-3.632-0.255-5.925v0c0.024-1.656 0.068-2.997 0.132-4.023v0c0.011-0.46 0.031-1.026 0.06-1.697 0.029-0.671 0.04-1.442 0.034-2.311v0c0.016-0.663 0.05-1.159 0.102-1.489 0.046-0.322 0.218-0.607 0.515-0.856 0.29-0.247 0.766-0.407 1.427-0.478v0c0.827-0.089 1.534 0.02 2.12 0.328 0.581 0.315 0.981 0.808 1.203 1.48v0z" fill="#ffffff" data-fill-palette-color="quaternary"></path><path d="M173.421 13.891c0.298 0.318 0.513 0.591 0.643 0.818 0.137 0.228 0.18 0.485 0.13 0.769v0c-0.05 0.284-0.201 0.564-0.454 0.84v0c-0.471 0.006-0.743-0.015-0.817-0.062v0c-1.168-0.525-2.647-0.946-4.438-1.261v0c-1.361-0.239-3.011-0.427-4.949-0.563v0l-1.718-0.169c-0.605-0.045-1.426-0.043-2.464 0.006v0l-1.403 0.019c-0.406-0.017-0.724-0.046-0.956-0.086v0c-1.388-0.244-2.635-0.96-3.74-2.15v0c-0.499-0.496-0.706-0.986-0.621-1.468v0c0.094-0.535 0.586-0.929 1.475-1.182v0c0.769-0.192 1.545-0.263 2.327-0.214v0l2.063 0.24c3.052 0.271 5.556 0.578 7.512 0.922v0c1.533 0.27 2.92 0.673 4.161 1.212 1.234 0.537 2.317 1.313 3.249 2.329z" fill="#ffffff" data-fill-palette-color="quaternary"></path><path d="M187.939 32.948c-2.19-1.035-3.142-2.632-2.856-4.79v0c0.212 0.1 0.491 0.24 0.838 0.418 0.343 0.185 0.619 0.356 0.826 0.513v0c0.338 0.227 0.586 0.377 0.744 0.452v0c1.171 0.554 2.394 0.494 3.67-0.18v0c0.904-0.5 1.54-1.138 1.907-1.914v0c0.247-0.522 0.357-1.093 0.332-1.714v0c-0.091-1.283-0.263-2.733-0.515-4.351v0c-0.17-1.068-0.304-2.073-0.399-3.017v0c-0.129-1.078 0.046-2.123 0.526-3.136v0c0.445-0.94 1.103-1.642 1.975-2.105 0.878-0.46 1.879-0.536 3.002-0.228v0l1.368 0.357c1.476 0.379 2.554 0.729 3.233 1.05v0c1.116 0.528 1.981 1.256 2.596 2.185v0c0.122 0.213 0.202 0.53 0.241 0.95 0.045 0.422 0.076 0.749 0.094 0.979v0c-0.219-0.007-0.533-0.003-0.941 0.012-0.405 0.009-0.73-0.026-0.975-0.105v0c-0.387-0.124-0.947-0.359-1.681-0.706v0c-0.704-0.333-1.245-0.57-1.623-0.712v0c-0.865-0.32-1.655-0.352-2.37-0.096-0.706 0.253-1.219 0.719-1.541 1.398v0c-0.247 0.522-0.344 1.129-0.293 1.82v0c0.15 1.503 0.496 3.307 1.037 5.412v0c0.378 1.618 0.271 3.052-0.32 4.302v0c-0.318 0.673-0.811 1.316-1.479 1.927v0c-2.304 2.094-4.769 2.521-7.396 1.279z" fill="#ffffff" data-fill-palette-color="quaternary"></path><path d="M216.759 45.763c-1.249 0.217-2.275 0.022-3.078-0.585v0c-0.669-0.506-1.204-1.255-1.606-2.248v0l-2.477 3.06c-1.857 2.213-3.427 4.167-4.71 5.865v0c-0.243 0.321-0.601 0.845-1.074 1.572v0c-0.479 0.723-0.84 1.245-1.083 1.566v0c-0.263 0.348-0.466 0.594-0.609 0.738v0c-0.175 0.187-0.48 0.306-0.913 0.357-0.443 0.052-0.815 0.015-1.114-0.111v0c-0.218-0.089-0.362-0.16-0.432-0.212v0c-0.53-0.401-0.867-1.017-1.012-1.85-0.15-0.837-0.021-1.496 0.386-1.979v0c1.345-1.691 3.322-4.117 5.928-7.277v0l5.921-7.333c1.092-1.345 1.89-2.567 2.393-3.667v0c0.162-0.315 0.278-0.518 0.346-0.609v0c0.279-0.369 0.605-0.573 0.979-0.61 0.377-0.043 0.767 0.054 1.168 0.29v0c0.609 0.385 1.187 0.577 1.733 0.578 0.545-0.009 1.264-0.126 2.157-0.35v0c1.605-0.41 2.903-0.241 3.893 0.507v0c1.103 0.833 1.843 2.457 2.223 4.872v0c0.173 1.106-0.139 2.187-0.936 3.241v0c-0.295 0.391-0.625 0.76-0.989 1.107v0c-0.889 0.842-1.904 1.479-3.046 1.912-1.146 0.437-2.496 0.826-4.048 1.166zM217.898 37.579c-1.547 1.001-2.729 2.042-3.546 3.123v0c-0.19 0.252-0.317 0.442-0.381 0.57v0l0.26 0.524c0.566 0.209 1.351 0.171 2.356-0.112 1.014-0.285 2.003-0.719 2.965-1.303 0.967-0.59 1.693-1.206 2.179-1.848v0c0.21-0.278 0.363-0.596 0.457-0.954v0c0.066-0.421-0.064-0.755-0.391-1.002v0c-0.412-0.311-0.823-0.386-1.231-0.224v0c-0.138 0.038-0.489 0.169-1.053 0.39-0.568 0.218-1.107 0.496-1.615 0.836z" fill="#ffffff" data-fill-palette-color="quaternary"></path><path d="M232.278 63.394c0.896-0.017 1.582-0.057 2.058-0.121v0c0.531-0.04 0.91 0.072 1.138 0.337v0c0.223 0.26 0.228 0.596 0.015 1.007v0c-0.614 1.057-1.173 1.802-1.677 2.234v0c-0.219 0.188-0.391 0.317-0.515 0.389v0c-0.512 0.289-1.03 0.304-1.552 0.045-0.523-0.249-0.996-0.666-1.418-1.25v0c-0.17-0.199-0.456-0.532-0.858-1.001-0.406-0.474-0.687-0.935-0.843-1.385-0.165-0.45-0.207-0.937-0.124-1.458v0c0.193-1.156 0.606-2.004 1.237-2.546v0c5.118-4.39 8.949-7.716 11.491-9.976v0l5.75-4.985c0.764-0.655 1.396-1.33 1.896-2.024v0c0.095-0.116 0.218-0.24 0.371-0.371v0c0.81-0.695 1.682-0.497 2.617 0.592v0c0.62 0.723 0.908 1.533 0.863 2.429-0.054 0.895-0.481 1.65-1.279 2.265v0c-1.218 0.93-3.034 2.332-5.447 4.208v0l-4.098 3.183c-3.871 3.011-6.764 5.28-8.68 6.808v0c-0.236 0.167-0.467 0.388-0.693 0.661-0.225 0.264-0.359 0.436-0.404 0.519v0z" fill="#ffffff" data-fill-palette-color="quaternary"></path><path d="M259.765 71.568c-0.178 0.042-0.445-0.042-0.802-0.253-0.357-0.211-0.666-0.372-0.925-0.484v0l-0.056-1.367c-0.054-1.338-0.029-2.29 0.074-2.856v0c0.035-0.285 0.165-0.494 0.391-0.627v0c0.145-0.085 0.307-0.106 0.487-0.064 0.178 0.051 0.331 0.187 0.461 0.407v0c0.571 0.972 1.015 2.299 1.332 3.979v0c0.065 0.164-0.021 0.401-0.259 0.712-0.235 0.302-0.47 0.486-0.703 0.553zM250.863 72.288c0.368-0.115 0.634-0.205 0.799-0.271 0.164-0.065 0.333-0.149 0.506-0.25v0c0.347-0.204 0.682-0.256 1.005-0.158 0.325 0.089 0.662 0.432 1.012 1.028v0c0.411 0.7 0.556 1.444 0.434 2.231-0.127 0.79-0.501 1.453-1.121 1.988v0c-0.303 0.279-0.659 0.554-1.068 0.825-0.409 0.271-0.674 0.442-0.795 0.514v0l-6.074 4.265c-0.627 0.469-1.196 0.679-1.708 0.629-0.512-0.05-0.978-0.434-1.4-1.151v0c-0.367-0.625-0.504-1.256-0.411-1.894 0.092-0.638 0.382-1.165 0.868-1.583v0l7.337-5.613z" fill="#ffffff" data-fill-palette-color="quaternary"></path><path d="M264.076 89.978c0.15-0.265 0.336-0.475 0.559-0.63 0.217-0.153 0.535-0.331 0.955-0.533v0c0.656 0.05 1.097 0.401 1.324 1.054v0c0.061 0.341 0.116 0.581 0.164 0.721v0c0.189 0.545 0.468 0.829 0.837 0.85 0.376 0.019 0.782-0.047 1.22-0.198 0.431-0.149 0.77-0.267 1.018-0.353v0l2.496-0.725c0.556-0.157 1.24-0.355 2.053-0.593 0.821-0.234 1.769-0.509 2.846-0.825v0c0.586-0.174 1.057-0.178 1.413-0.01 0.363 0.166 0.624 0.48 0.784 0.943v0c0.114 0.33 0.179 0.598 0.193 0.806v0c0.139 1.202 0.043 2.073-0.288 2.614-0.331 0.541-0.937 1.038-1.817 1.491v0c-0.179 0.098-0.581 0.208-1.205 0.332v0l-6.629 1.463c-0.174 0.032-0.387 0.063-0.639 0.093-0.248 0.022-0.426 0.052-0.534 0.089v0c-0.247 0.086-0.365 0.279-0.353 0.58 0.012 0.301 0.161 0.814 0.447 1.538v0c0.705 1.155 1.208 2.046 1.511 2.673v0c0.08 0.129 0.172 0.342 0.274 0.64v0c0.114 0.33 0.149 0.563 0.104 0.699v0c-0.02 0.128-0.148 0.271-0.384 0.431-0.23 0.158-0.509 0.293-0.839 0.407v0c-0.298 0.103-0.583 0.163-0.854 0.178-0.265 0.014-0.432-0.028-0.501-0.125v0c-0.47-0.661-0.949-1.471-1.437-2.431v0c-0.63-1.124-1.127-1.943-1.489-2.456v0c-0.186-0.269-0.493-0.5-0.922-0.693-0.433-0.184-0.79-0.241-1.071-0.172v0c-1.351 0.404-2.726 0.833-4.123 1.288v0c-1.068 0.341-2.116 0.75-3.144 1.226v0c-0.872 0.394-1.457 0.795-1.756 1.204-0.299 0.409-0.354 0.886-0.165 1.431v0c0.149 0.431 0.514 1.004 1.096 1.719v0c0.342 0.372 0.568 0.719 0.68 1.042v0c0.18 0.52 0.022 0.986-0.474 1.4v0c-0.162 0.148-0.338 0.255-0.528 0.321v0c-0.355 0.123-0.685 0.092-0.991-0.094-0.31-0.177-0.623-0.456-0.939-0.836v0c-0.581-0.715-1.03-1.49-1.347-2.324v0c-0.395-1.141-0.488-2.313-0.279-3.514 0.209-1.201 0.716-2.271 1.52-3.209 0.806-0.932 1.877-1.583 3.212-1.953v0c0.529-0.155 1.351-0.425 2.467-0.811v0c1.769-0.612 3.54-1.3 5.314-2.062v0c0.156-0.082 0.24-0.218 0.253-0.407 0.013-0.189-0.006-0.488-0.055-0.897v0c-0.109-0.665-0.102-1.126 0.023-1.382z" fill="#ffffff" data-fill-palette-color="quaternary"></path><path d="M30.098 183.9c-0.117 0.05-0.236 0.114-0.355 0.193-0.117 0.086-0.227 0.169-0.332 0.249v0c0.068 0.248 0.2 0.604 0.395 1.068v0c0.862 2.047 2.189 3.967 3.979 5.761v0c0.496 0.519 0.829 0.983 1.001 1.391v0c0.344 0.816 0.246 1.647-0.293 2.493v0c-0.302 0.44-0.599 0.722-0.889 0.844v0c-0.352 0.149-0.798 0.111-1.337-0.114v0c-1.574-0.713-2.712-1.693-3.413-2.941v0c-0.637-1.115-1.625-2.767-2.962-4.955v0l-1.729-2.886c-1.224-0.037-2.319 0.147-3.284 0.553v0c-1.404 0.591-2.359 1.573-2.865 2.945-0.51 1.365-0.435 2.907 0.223 4.624v0c0.696 1.738 1.745 3.899 3.147 6.483v0l0.31 0.633c0.31 0.736 0.4 1.415 0.27 2.038-0.131 0.623-0.53 1.334-1.199 2.133v0c-0.834-0.027-1.499-0.282-1.993-0.766-0.495-0.483-0.998-1.167-1.509-2.051v0c-0.524-0.915-1.044-1.985-1.56-3.209v0c-1.123-2.665-1.71-5.242-1.762-7.732v0c-0.13-4.387 1.382-7.864 4.538-10.431v0c0.432-0.357 0.936-0.656 1.511-0.899 0.569-0.24 0.912-0.384 1.029-0.434v0c0.989-0.417 1.516-1.207 1.579-2.369v0c0.105-0.976 0.274-1.761 0.505-2.353 0.228-0.599 0.729-1.13 1.501-1.594v0l2.397 4.833 7.388-0.482c0.227-0.03 0.511-0.074 0.852-0.129 0.334-0.053 0.609-0.075 0.825-0.064v0c0.693 0.021 1.232-0.049 1.615-0.211v0c0.581-0.245 0.974-0.738 1.178-1.48v0c0.062-0.267 0.264-0.548 0.606-0.844 0.338-0.303 0.597-0.561 0.776-0.775v0l0.722 0.831c0.309 0.423 0.553 0.717 0.732 0.882v0c0.105 0.094 0.319 0.299 0.641 0.615 0.32 0.309 0.593 0.449 0.821 0.418v0c0.589-0.001 1.035 0.114 1.335 0.344 0.303 0.236 0.548 0.574 0.733 1.013v0c0.122 0.291 0.28 0.741 0.471 1.352v0c0.073 0.173 0.113 0.371 0.12 0.594 0.004 0.217-0.028 0.409-0.096 0.576v0c-0.415 0.968-0.566 1.913-0.455 2.834 0.109 0.915 0.398 1.929 0.867 3.043v0l0.793 1.882 1.552 3.682c1.047 2.486 1.803 4.355 2.266 5.609v0c0.24 0.656 0.306 1.589 0.197 2.801v0c-0.011 0.216-0.119 0.425-0.325 0.628-0.209 0.212-0.428 0.366-0.657 0.463v0c-0.117 0.05-0.3 0.006-0.547-0.131-0.247-0.136-0.439-0.281-0.576-0.434v0c-1.362-1.763-2.302-3.14-2.821-4.13v0c-0.813-1.514-2.002-3.801-3.569-6.862v0c-0.332-0.719-0.896-1.858-1.691-3.416v0c-0.05-0.117-0.098-0.337-0.147-0.659-0.054-0.319-0.113-0.553-0.175-0.701v0c-0.456-1.082-1.197-1.578-2.222-1.488v0c-2.677 0.196-5.317 0.428-7.92 0.694v0z" fill="#ffffff" data-fill-palette-color="quaternary"></path><path d="M41.66 232.433c-0.087-0.303-0.22-0.563-0.401-0.78v0c-0.185-0.222-0.398-0.367-0.639-0.437-0.241-0.07-0.552-0.108-0.933-0.114v0c-0.539-0.049-1.039-0.152-1.501-0.308v0c-0.411-0.147-1.014-0.552-1.811-1.216v0c-0.335-0.297-0.593-0.554-0.773-0.771v0c-0.854-1.026-1.516-2.282-1.986-3.768-0.475-1.482-0.588-2.719-0.34-3.712v0c0.278-1.061 0.817-1.903 1.617-2.525v0c1.192-0.949 2.768-1.436 4.729-1.462v0c1.897-0.008 3.395 0.181 4.493 0.567 1.104 0.382 2.276 1.192 3.516 2.429v0c0.245 0.294 0.644 0.673 1.196 1.139 0.553 0.465 0.915 0.627 1.085 0.485v0c0.34-0.283 0.523-0.693 0.548-1.23 0.03-0.54-0.341-1.275-1.114-2.202v0c-0.283-0.34-0.734-0.829-1.352-1.467v0c-0.617-0.647-1.038-1.105-1.261-1.373v0c-0.687-0.825-1.049-1.532-1.086-2.121v0c-0.035-0.137 0.156-0.379 0.574-0.727v0c0.732-0.61 1.406-0.739 2.022-0.387v0c1.263 0.72 2.376 1.632 3.338 2.734v0c1.176 1.413 1.955 2.982 2.336 4.708 0.386 1.722 0.349 3.25-0.112 4.585v0c-0.46 1.335-1.437 2.768-2.929 4.299v0c-1.662 1.716-3.908 3.752-6.739 6.11v0c-0.779 0.648-1.322 0.913-1.63 0.794v0c-0.282-0.097-0.493-0.231-0.636-0.401v0c-0.18-0.217-0.281-0.473-0.301-0.771-0.016-0.292 0.005-0.65 0.062-1.073v0c0.088-0.44 0.097-0.775 0.028-1.005zM37.29 226.289c1.293 0.861 2.776 1.525 4.449 1.992v0c0.372 0.101 0.774 0.137 1.205 0.11 0.427-0.032 0.698-0.053 0.813-0.061v0c0.111-0.014 0.359-0.151 0.745-0.411 0.385-0.251 0.678-0.481 0.877-0.692v0c0.051-0.086 0.21-0.293 0.479-0.621 0.263-0.324 0.466-0.646 0.61-0.966v0c0.093-0.287 0.113-0.635 0.059-1.045-0.053-0.41-0.18-0.714-0.381-0.914v0c-0.412-0.443-1.001-0.799-1.767-1.069-0.761-0.274-1.603-0.42-2.526-0.438v0c-0.948 0.004-1.816 0.115-2.603 0.335-0.783 0.224-1.419 0.54-1.909 0.947v0c-0.616 0.592-0.902 1.14-0.857 1.644v0c0.018 0.273 0.128 0.531 0.329 0.773v0c0.163 0.196 0.322 0.334 0.477 0.416z" fill="#ffffff" data-fill-palette-color="quaternary"></path><path d="M64.225 232.619c-0.029-0.336 0.006-0.642 0.107-0.917 0.104-0.281 0.28-0.642 0.527-1.085v0c0.622-0.377 1.243-0.341 1.861 0.108v0c0.265 0.275 0.462 0.46 0.593 0.555v0c0.516 0.375 0.948 0.453 1.298 0.234 0.355-0.215 0.68-0.526 0.976-0.933 0.3-0.413 0.534-0.736 0.704-0.969v0l1.788-2.222c0.402-0.496 0.896-1.107 1.482-1.834 0.59-0.732 1.272-1.58 2.046-2.544v0c0.421-0.523 0.847-0.824 1.277-0.901 0.43-0.078 0.862 0.041 1.296 0.357v0c0.309 0.225 0.536 0.427 0.68 0.605v0c0.884 0.998 1.347 1.845 1.389 2.54 0.039 0.7-0.192 1.532-0.693 2.495v0c-0.107 0.204-0.403 0.561-0.889 1.07v0l-5.052 5.498c-0.142 0.138-0.318 0.295-0.53 0.473-0.207 0.182-0.347 0.324-0.422 0.428v0c-0.166 0.228-0.15 0.475 0.045 0.742 0.2 0.261 0.657 0.631 1.372 1.108v0c1.369 0.605 2.387 1.092 3.056 1.461v0c0.15 0.068 0.366 0.204 0.649 0.409v0c0.309 0.225 0.485 0.411 0.527 0.558v0c0.064 0.129 0.041 0.337-0.067 0.623-0.112 0.292-0.281 0.592-0.505 0.902v0c-0.205 0.282-0.425 0.516-0.66 0.702-0.231 0.181-0.408 0.247-0.53 0.199v0c-0.839-0.295-1.779-0.724-2.82-1.289v0c-1.279-0.614-2.247-1.039-2.904-1.276v0c-0.337-0.129-0.76-0.141-1.267-0.038-0.503 0.099-0.86 0.271-1.071 0.516v0c-0.965 1.215-1.934 2.468-2.906 3.761v0c-0.757 0.985-1.446 2.014-2.069 3.087v0c-0.539 0.902-0.817 1.633-0.834 2.193-0.013 0.554 0.238 1.019 0.754 1.394v0c0.413 0.3 1.107 0.588 2.082 0.866v0c0.537 0.117 0.961 0.287 1.27 0.512v0c0.489 0.355 0.639 0.879 0.451 1.571v0c-0.054 0.234-0.146 0.441-0.276 0.62v0c-0.241 0.331-0.558 0.511-0.952 0.54-0.394 0.029-0.853-0.031-1.376-0.178v0c-0.976-0.278-1.87-0.691-2.682-1.239v0c-1.08-0.785-1.904-1.785-2.472-3.002-0.567-1.217-0.78-2.499-0.638-3.848 0.136-1.352 0.69-2.617 1.661-3.794v0c0.378-0.463 0.95-1.222 1.715-2.275v0c1.215-1.672 2.382-3.416 3.501-5.231v0c0.089-0.168 0.078-0.341-0.032-0.521-0.105-0.176-0.309-0.431-0.611-0.767v0c-0.517-0.533-0.8-0.954-0.849-1.264z" fill="#ffffff" data-fill-palette-color="quaternary"></path><path d="M106.473 259.967c0.252 0.403 0.425 0.741 0.518 1.017 0.097 0.284 0.088 0.572-0.028 0.865v0c-0.116 0.293-0.341 0.562-0.675 0.805v0c-0.509-0.1-0.802-0.18-0.88-0.24v0c-1.145-0.827-2.644-1.607-4.497-2.339v0c-1.417-0.56-3.155-1.127-5.214-1.703v0l-1.821-0.568c-0.646-0.19-1.531-0.37-2.654-0.54v0l-1.521-0.287c-0.44-0.109-0.779-0.21-1.016-0.304v0c-1.442-0.569-2.628-1.619-3.561-3.149v0c-0.43-0.646-0.547-1.219-0.349-1.717v0c0.222-0.562 0.845-0.878 1.869-0.95v0c0.865-0.034 1.712 0.059 2.541 0.278v0l2.176 0.709c3.236 0.975 5.871 1.865 7.906 2.669v0c1.591 0.629 2.994 1.37 4.207 2.224 1.22 0.857 2.219 1.934 2.999 3.23z" fill="#ffffff" data-fill-palette-color="quaternary"></path><path d="M128.174 258.284c-0.018 0.194-0.071 0.438-0.159 0.733-0.095 0.294-0.129 0.49-0.104 0.587v0c2.222-0.274 4.091-0.341 5.608-0.201v0c2.372 0.219 4.051 1.519 5.037 3.901v0c0.804 2.021 1.099 4.201 0.884 6.54v0c-0.055 0.595-0.198 1.457-0.431 2.588v0c-0.163 0.746-0.52 1.327-1.07 1.741-0.543 0.408-1.162 0.58-1.857 0.516v0c-0.728-0.067-1.23-0.248-1.506-0.543-0.276-0.295-0.421-0.618-0.436-0.97-0.015-0.352 0.013-0.908 0.083-1.67v0l0.041-0.997c0.115-1.903 0.139-3.558 0.074-4.966v0c-0.041-0.577-0.218-0.997-0.531-1.262-0.305-0.271-0.728-0.431-1.27-0.481v0c-0.501-0.046-1.106-0.021-1.816 0.076v0c-1.102 0.181-1.843 0.336-2.225 0.462-0.376 0.127-0.934 0.409-1.675 0.846v0c-0.235 0.14-0.422 0.443-0.559 0.909-0.137 0.466-0.209 0.729-0.214 0.788v0c-0.601 1.986-1.268 4.364-2.002 7.133v0c-0.045 0.124-0.136 0.419-0.273 0.885-0.137 0.466-0.349 0.787-0.635 0.962-0.286 0.182-0.681 0.22-1.183 0.114v0c-1.968-0.437-2.903-1.369-2.804-2.796v0c0.142-1.833 0.485-3.985 1.029-6.454v0c0.386-1.777 0.724-3.211 1.013-4.303v0c0.113-0.495 0.256-1.102 0.43-1.82 0.181-0.718 0.361-1.547 0.543-2.487v0c0.161-0.72 0.307-1.249 0.439-1.587 0.126-0.339 0.373-0.609 0.742-0.811 0.37-0.209 0.919-0.279 1.647-0.212v0c0.915 0.084 1.655 0.361 2.217 0.831 0.557 0.462 0.881 1.082 0.971 1.858v0z" fill="#ffffff" data-fill-palette-color="quaternary"></path><path d="M175.378 258.79c0.429 0.204 0.757 0.396 0.983 0.578 0.234 0.187 0.382 0.435 0.442 0.745v0c0.06 0.31 0.015 0.657-0.136 1.041v0c-0.483 0.189-0.773 0.28-0.87 0.272v0c-1.41-0.082-3.093 0.067-5.05 0.446v0c-1.495 0.29-3.266 0.747-5.311 1.369v0l-1.841 0.501c-0.647 0.187-1.49 0.511-2.528 0.973v0l-1.436 0.576c-0.43 0.145-0.77 0.242-1.02 0.29v0c-1.522 0.295-3.087 0.049-4.696-0.74v0c-0.71-0.313-1.116-0.733-1.218-1.26v0c-0.115-0.593 0.24-1.195 1.064-1.806v0c0.711-0.493 1.475-0.871 2.292-1.132v0l2.216-0.573c3.253-0.918 5.953-1.586 8.1-2.003v0c1.68-0.326 3.261-0.455 4.744-0.387 1.489 0.066 2.911 0.436 4.265 1.11z" fill="#ffffff" data-fill-palette-color="quaternary"></path><path d="M198.197 264.383c-2.387 1.182-4.414 0.913-6.083-0.807v0c0.228-0.113 0.538-0.259 0.929-0.437 0.391-0.179 0.727-0.3 1.01-0.365v0c0.43-0.145 0.729-0.26 0.897-0.344v0c1.281-0.634 2.067-1.731 2.358-3.29v0c0.187-1.119 0.07-2.105-0.353-2.958v0c-0.28-0.565-0.695-1.048-1.246-1.45v0c-1.176-0.803-2.552-1.645-4.127-2.527v0c-1.033-0.589-1.986-1.161-2.86-1.717v0c-1.021-0.625-1.807-1.494-2.358-2.606v0c-0.506-1.022-0.661-2.069-0.465-3.139 0.196-1.07 0.813-1.986 1.852-2.748v0l1.237-0.927c1.336-1.021 2.374-1.715 3.114-2.081v0c1.227-0.607 2.45-0.858 3.671-0.751v0c0.267 0.04 0.595 0.188 0.984 0.445 0.392 0.248 0.694 0.442 0.907 0.584v0c-0.163 0.185-0.375 0.459-0.638 0.822-0.265 0.356-0.517 0.612-0.755 0.766v0c-0.373 0.26-0.956 0.586-1.75 0.979v0c-0.77 0.381-1.347 0.682-1.732 0.903v0c-0.863 0.54-1.43 1.202-1.7 1.987-0.261 0.788-0.21 1.549 0.153 2.283v0c0.283 0.571 0.743 1.07 1.381 1.495v0c1.398 0.903 3.187 1.84 5.368 2.811v0c1.662 0.772 2.831 1.84 3.507 3.205v0c0.366 0.74 0.582 1.606 0.647 2.6v0c0.242 3.422-1.074 5.844-3.948 7.267z" fill="#ffffff" data-fill-palette-color="quaternary"></path><path d="M224.347 241.775c-0.132 1.384-0.636 2.416-1.51 3.095v0c-0.726 0.563-1.678 0.919-2.854 1.066v0l2.54 3.507c1.817 2.607 3.446 4.838 4.885 6.693v0c0.271 0.35 0.725 0.881 1.362 1.593v0c0.632 0.716 1.083 1.249 1.355 1.599v0c0.292 0.376 0.495 0.66 0.609 0.852v0c0.15 0.249 0.19 0.612 0.12 1.091-0.074 0.474-0.22 0.854-0.438 1.142v0c-0.16 0.209-0.278 0.343-0.352 0.401v0c-0.578 0.448-1.333 0.63-2.264 0.545-0.922-0.083-1.586-0.409-1.993-0.976v0c-1.406-1.923-3.415-4.722-6.025-8.395v0l-6.096-8.404c-1.115-1.547-2.185-2.746-3.21-3.598v0c-0.282-0.265-0.46-0.446-0.534-0.541v0c-0.312-0.403-0.438-0.811-0.376-1.224 0.066-0.408 0.277-0.792 0.634-1.154v0c0.594-0.537 0.966-1.093 1.114-1.666 0.15-0.584 0.235-1.383 0.254-2.4v0c0.026-1.828 0.577-3.16 1.653-3.995v0c1.204-0.933 3.145-1.254 5.825-0.963v0c1.226 0.136 2.285 0.779 3.177 1.93v0c0.333 0.429 0.627 0.885 0.882 1.367v0c0.643 1.191 1.033 2.455 1.17 3.792 0.132 1.341 0.156 2.889 0.072 4.643zM215.976 238.206c0.616 1.933 1.381 3.489 2.293 4.665v0c0.214 0.276 0.383 0.467 0.508 0.574v0l0.627-0.129c0.383-0.535 0.569-1.379 0.557-2.533-0.016-1.159-0.195-2.337-0.536-3.533-0.351-1.197-0.797-2.145-1.34-2.845v0c-0.234-0.302-0.53-0.557-0.886-0.765v0c-0.426-0.188-0.814-0.146-1.164 0.126v0c-0.456 0.354-0.657 0.768-0.602 1.243v0c-0.001 0.162 0.035 0.576 0.109 1.241 0.074 0.664 0.218 1.316 0.434 1.956z" fill="#ffffff" data-fill-palette-color="quaternary"></path><path d="M242.885 225.121c-0.168-0.976-0.33-1.715-0.486-2.216v0c-0.139-0.574-0.085-1.007 0.162-1.299v0c0.247-0.292 0.613-0.356 1.098-0.193v0c1.254 0.48 2.161 0.956 2.72 1.429v0c0.241 0.204 0.414 0.367 0.52 0.492v0c0.399 0.504 0.506 1.064 0.319 1.68-0.182 0.61-0.554 1.196-1.116 1.758v0c-0.186 0.22-0.5 0.592-0.942 1.114-0.437 0.518-0.888 0.905-1.352 1.164-0.46 0.253-0.985 0.38-1.575 0.382v0c-1.281-0.002-2.272-0.299-2.974-0.893v0c-5.673-4.794-9.96-8.376-12.859-10.746v0l-6.428-5.365c-0.846-0.715-1.694-1.286-2.544-1.715v0c-0.14-0.074-0.294-0.182-0.463-0.325v0c-0.897-0.758-0.832-1.744 0.194-2.959v0c0.676-0.8 1.502-1.252 2.479-1.358 0.986-0.107 1.883 0.225 2.69 0.995v0c1.221 1.154 3.063 2.878 5.526 5.17v0l4.185 3.905c3.956 3.676 6.934 6.421 8.934 8.234v0c0.219 0.229 0.497 0.442 0.832 0.637 0.326 0.196 0.538 0.314 0.637 0.353v0z" fill="#ffffff" data-fill-palette-color="quaternary"></path><path d="M238.085 196.663c0.128 0.153 0.187 0.456 0.177 0.91-0.01 0.453 0.001 0.838 0.034 1.153v0l-1.281 0.788c-1.267 0.765-2.198 1.248-2.792 1.451v0c-0.291 0.124-0.561 0.114-0.81-0.033v0c-0.162-0.095-0.269-0.244-0.321-0.446-0.05-0.193-0.004-0.411 0.139-0.653v0c0.629-1.07 1.67-2.209 3.121-3.419v0c0.118-0.148 0.392-0.19 0.82-0.124 0.419 0.068 0.724 0.192 0.913 0.373zM243.536 204.845c-0.302-0.294-0.53-0.502-0.684-0.624-0.145-0.124-0.313-0.242-0.504-0.355v0c-0.387-0.228-0.62-0.521-0.698-0.878-0.084-0.361 0.068-0.871 0.457-1.53v0c0.449-0.763 1.087-1.299 1.914-1.606 0.821-0.311 1.656-0.307 2.503 0.013v0c0.429 0.144 0.884 0.337 1.363 0.58 0.485 0.247 0.795 0.409 0.928 0.488v0l7.354 3.556c0.788 0.355 1.295 0.789 1.522 1.304 0.229 0.524 0.11 1.182-0.356 1.975v0c-0.402 0.682-0.934 1.151-1.598 1.406-0.67 0.252-1.338 0.256-2.004 0.012v0l-9.32-4.047z" fill="#ffffff" data-fill-palette-color="quaternary"></path><path d="M247.639 187.036c-0.314 0.123-0.618 0.176-0.91 0.157-0.299-0.021-0.695-0.086-1.19-0.197v0c-0.538-0.49-0.679-1.095-0.424-1.817v0c0.189-0.332 0.31-0.573 0.364-0.725v0c0.213-0.601 0.165-1.038-0.144-1.311-0.307-0.28-0.697-0.504-1.171-0.672-0.481-0.17-0.857-0.304-1.129-0.4v0l-2.637-1.085c-0.59-0.245-1.316-0.545-2.179-0.901-0.87-0.358-1.876-0.772-3.02-1.242v0c-0.621-0.256-1.03-0.579-1.226-0.969-0.196-0.39-0.205-0.838-0.025-1.344v0c0.128-0.36 0.257-0.635 0.388-0.823v0c0.707-1.13 1.388-1.814 2.042-2.052 0.66-0.236 1.523-0.25 2.588-0.043v0c0.226 0.045 0.652 0.228 1.279 0.549v0l6.705 3.286c0.172 0.097 0.374 0.221 0.604 0.375 0.233 0.147 0.409 0.241 0.529 0.284v0c0.266 0.094 0.499 0.01 0.699-0.254 0.194-0.266 0.419-0.809 0.674-1.63v0c0.192-1.484 0.37-2.599 0.535-3.345v0c0.022-0.163 0.092-0.409 0.208-0.738v0c0.128-0.36 0.256-0.582 0.386-0.664v0c0.106-0.098 0.311-0.135 0.616-0.112 0.311 0.025 0.647 0.102 1.008 0.229v0c0.329 0.117 0.616 0.261 0.861 0.433 0.239 0.17 0.353 0.321 0.341 0.453v0c-0.045 0.888-0.19 1.912-0.437 3.069v0c-0.226 1.401-0.36 2.45-0.401 3.147v0c-0.028 0.36 0.08 0.769 0.324 1.226 0.237 0.454 0.504 0.748 0.798 0.881v0c1.438 0.581 2.915 1.155 4.43 1.721v0c1.159 0.447 2.341 0.816 3.547 1.108v0c1.018 0.261 1.798 0.321 2.339 0.179 0.535-0.145 0.91-0.517 1.123-1.118v0c0.17-0.481 0.251-1.228 0.24-2.243v0c-0.04-0.548 0.003-1.003 0.131-1.363v0c0.202-0.569 0.662-0.862 1.38-0.878v0c0.24-0.015 0.464 0.015 0.673 0.089v0c0.386 0.137 0.648 0.39 0.787 0.76 0.139 0.37 0.212 0.826 0.219 1.37v0c0.01 1.015-0.132 1.989-0.428 2.924v0c-0.446 1.258-1.172 2.332-2.178 3.221-1.006 0.889-2.175 1.457-3.509 1.703-1.335 0.252-2.705 0.08-4.109-0.518v0c-0.552-0.231-1.441-0.564-2.668-1v0c-1.948-0.691-3.951-1.316-6.009-1.875v0c-0.186-0.038-0.35 0.022-0.49 0.179-0.139 0.15-0.326 0.418-0.563 0.804v0c-0.365 0.647-0.688 1.037-0.971 1.172z" fill="#ffffff" data-fill-palette-color="quaternary"></path><path d="M0.244 140.544c0-6.546 5.307-11.853 11.853-11.853 6.546 0 11.853 5.307 11.853 11.853 0 6.546-5.307 11.853-11.853 11.853-6.546 0-11.853-5.307-11.853-11.853z" fill="#ffffff" data-fill-palette-color="quaternary"></path><path d="M253.872 140.544c0-6.546 5.307-11.853 11.853-11.853 6.546 0 11.853 5.307 11.853 11.853 0 6.546-5.307 11.853-11.853 11.853-6.546 0-11.853-5.307-11.853-11.853z" fill="#ffffff" data-fill-palette-color="quaternary"></path></g></svg></g></svg></g></svg></g><g></g></svg></g></svg></g></svg></g><defs></defs></svg><rect width="512" height="320" fill="none" stroke="none" visibility="hidden"></rect></g></svg></g></svg>